<svg xmlns="http://www.w3.org/2000/svg" viewBox="0 0 760 492" width="760" height="492" font-family="-apple-system,'Helvetica Neue',Arial,'Hiragino Sans',Meiryo,sans-serif" role="img"><title>各段が受け持てる車速範囲</title>
<line x1="66.0" y1="40" x2="66.0" y2="362" stroke="#808a94" stroke-width="1" opacity="0.2"/>
<text x="66.0" y="32.0" font-size="11.5" fill="#767f89" text-anchor="middle" font-weight="normal">0</text>
<line x1="141.4" y1="40" x2="141.4" y2="362" stroke="#808a94" stroke-width="1" opacity="0.2"/>
<text x="141.4" y="32.0" font-size="11.5" fill="#767f89" text-anchor="middle" font-weight="normal">20</text>
<line x1="216.7" y1="40" x2="216.7" y2="362" stroke="#808a94" stroke-width="1" opacity="0.2"/>
<text x="216.7" y="32.0" font-size="11.5" fill="#767f89" text-anchor="middle" font-weight="normal">40</text>
<line x1="292.1" y1="40" x2="292.1" y2="362" stroke="#808a94" stroke-width="1" opacity="0.2"/>
<text x="292.1" y="32.0" font-size="11.5" fill="#767f89" text-anchor="middle" font-weight="normal">60</text>
<line x1="367.4" y1="40" x2="367.4" y2="362" stroke="#808a94" stroke-width="1" opacity="0.2"/>
<text x="367.4" y="32.0" font-size="11.5" fill="#767f89" text-anchor="middle" font-weight="normal">80</text>
<line x1="442.8" y1="40" x2="442.8" y2="362" stroke="#808a94" stroke-width="1" opacity="0.2"/>
<text x="442.8" y="32.0" font-size="11.5" fill="#767f89" text-anchor="middle" font-weight="normal">100</text>
<line x1="518.1" y1="40" x2="518.1" y2="362" stroke="#808a94" stroke-width="1" opacity="0.2"/>
<text x="518.1" y="32.0" font-size="11.5" fill="#767f89" text-anchor="middle" font-weight="normal">120</text>
<line x1="593.5" y1="40" x2="593.5" y2="362" stroke="#808a94" stroke-width="1" opacity="0.2"/>
<text x="593.5" y="32.0" font-size="11.5" fill="#767f89" text-anchor="middle" font-weight="normal">140</text>
<text x="358.0" y="14.0" font-size="12.5" fill="#767f89" text-anchor="middle" font-weight="normal">車速 [km/h]</text>
<rect x="66" y="441" width="22" height="11" rx="2" fill="#767f89" opacity="0.75"/>
<text x="94.0" y="450.0" font-size="11.5" fill="#767f89" text-anchor="start" font-weight="normal">実用範囲</text>
<rect x="158" y="441" width="22" height="11" rx="2" fill="#767f89" opacity="0.2" stroke="#767f89" stroke-width="0.8" stroke-dasharray="2 2"/>
<text x="186.0" y="450.0" font-size="11.5" fill="#767f89" text-anchor="start" font-weight="normal">回転数では届くが出力が足りない</text>
<circle cx="396" cy="446.5" r="4" fill="#767f89"/>
<text x="406.0" y="450.0" font-size="11.5" fill="#767f89" text-anchor="start" font-weight="normal">出力で頭打ち</text>
<text x="52.0" y="76.0" font-size="13" fill="#767f89" text-anchor="end" font-weight="600">1速</text>
<rect x="134.7" y="54" width="89.9" height="15" rx="2.5" fill="#3b82c4" opacity="0.85"/>
<text x="129.7" y="66.0" font-size="10.5" fill="#3b82c4" text-anchor="end" font-weight="normal">14T</text>
<rect x="139.6" y="74" width="96.3" height="15" rx="2.5" fill="#e07b39" opacity="0.85"/>
<text x="134.6" y="86.0" font-size="10.5" fill="#e07b39" text-anchor="end" font-weight="normal">15T</text>
<text x="662.0" y="69.0" font-size="11.5" fill="#767f89" text-anchor="start" font-weight="normal">24 → 26 km/h</text>
<text x="662.0" y="84.0" font-size="12.5" fill="#767f89" text-anchor="start" font-weight="600">+7%</text>
<text x="52.0" y="130.0" font-size="13" fill="#767f89" text-anchor="end" font-weight="600">2速</text>
<rect x="170.3" y="108" width="136.4" height="15" rx="2.5" fill="#3b82c4" opacity="0.85"/>
<text x="165.3" y="120.0" font-size="10.5" fill="#3b82c4" text-anchor="end" font-weight="normal">14T</text>
<rect x="177.8" y="128" width="146.2" height="15" rx="2.5" fill="#e07b39" opacity="0.85"/>
<text x="172.8" y="140.0" font-size="10.5" fill="#e07b39" text-anchor="end" font-weight="normal">15T</text>
<text x="662.0" y="123.0" font-size="11.5" fill="#767f89" text-anchor="start" font-weight="normal">36 → 39 km/h</text>
<text x="662.0" y="138.0" font-size="12.5" fill="#767f89" text-anchor="start" font-weight="600">+7%</text>
<text x="52.0" y="184.0" font-size="13" fill="#767f89" text-anchor="end" font-weight="600">3速</text>
<rect x="208.3" y="162" width="186.1" height="15" rx="2.5" fill="#3b82c4" opacity="0.85"/>
<text x="203.3" y="174.0" font-size="10.5" fill="#3b82c4" text-anchor="end" font-weight="normal">14T</text>
<rect x="218.4" y="182" width="199.4" height="15" rx="2.5" fill="#e07b39" opacity="0.85"/>
<text x="213.4" y="194.0" font-size="10.5" fill="#e07b39" text-anchor="end" font-weight="normal">15T</text>
<text x="662.0" y="177.0" font-size="11.5" fill="#767f89" text-anchor="start" font-weight="normal">49 → 53 km/h</text>
<text x="662.0" y="192.0" font-size="12.5" fill="#767f89" text-anchor="start" font-weight="600">+7%</text>
<text x="52.0" y="238.0" font-size="13" fill="#767f89" text-anchor="end" font-weight="600">4速</text>
<rect x="239.9" y="216" width="227.4" height="15" rx="2.5" fill="#3b82c4" opacity="0.85"/>
<text x="234.9" y="228.0" font-size="10.5" fill="#3b82c4" text-anchor="end" font-weight="normal">14T</text>
<rect x="252.3" y="236" width="243.7" height="15" rx="2.5" fill="#e07b39" opacity="0.85"/>
<text x="247.3" y="248.0" font-size="10.5" fill="#e07b39" text-anchor="end" font-weight="normal">15T</text>
<text x="662.0" y="231.0" font-size="11.5" fill="#767f89" text-anchor="start" font-weight="normal">60 → 65 km/h</text>
<text x="662.0" y="246.0" font-size="12.5" fill="#767f89" text-anchor="start" font-weight="600">+7%</text>
<text x="52.0" y="292.0" font-size="13" fill="#767f89" text-anchor="end" font-weight="600">5速</text>
<rect x="267.3" y="270" width="263.3" height="15" rx="2.5" fill="#3b82c4" opacity="0.85"/>
<text x="262.3" y="282.0" font-size="10.5" fill="#3b82c4" text-anchor="end" font-weight="normal">14T</text>
<rect x="528.5" y="290" width="35.3" height="15" rx="2" fill="#e07b39" opacity="0.16" stroke="#e07b39" stroke-width="0.8" stroke-dasharray="2 2"/>
<rect x="281.7" y="290" width="246.8" height="15" rx="2.5" fill="#e07b39" opacity="0.85"/>
<circle cx="528.5" cy="297.5" r="4.2" fill="#e07b39" stroke="#ffffff" stroke-width="1"/>
<text x="276.7" y="302.0" font-size="10.5" fill="#e07b39" text-anchor="end" font-weight="normal">15T</text>
<text x="662.0" y="285.0" font-size="11.5" fill="#767f89" text-anchor="start" font-weight="normal">70 → 65 km/h</text>
<text x="662.0" y="300.0" font-size="12.5" fill="#e07b39" text-anchor="start" font-weight="600">-6%</text>
<text x="52.0" y="346.0" font-size="13" fill="#767f89" text-anchor="end" font-weight="600">6速</text>
<rect x="518.1" y="324" width="69.8" height="15" rx="2" fill="#3b82c4" opacity="0.16" stroke="#3b82c4" stroke-width="0.8" stroke-dasharray="2 2"/>
<rect x="292.2" y="324" width="226.0" height="15" rx="2.5" fill="#3b82c4" opacity="0.85"/>
<circle cx="518.1" cy="331.5" r="4.2" fill="#3b82c4" stroke="#ffffff" stroke-width="1"/>
<text x="287.2" y="336.0" font-size="10.5" fill="#3b82c4" text-anchor="end" font-weight="normal">14T</text>
<rect x="481.4" y="344" width="143.8" height="15" rx="2" fill="#e07b39" opacity="0.16" stroke="#e07b39" stroke-width="0.8" stroke-dasharray="2 2"/>
<rect x="308.3" y="344" width="173.1" height="15" rx="2.5" fill="#e07b39" opacity="0.85"/>
<circle cx="481.4" cy="351.5" r="4.2" fill="#e07b39" stroke="#ffffff" stroke-width="1"/>
<text x="303.3" y="356.0" font-size="10.5" fill="#e07b39" text-anchor="end" font-weight="normal">15T</text>
<text x="662.0" y="339.0" font-size="11.5" fill="#767f89" text-anchor="start" font-weight="normal">60 → 46 km/h</text>
<text x="662.0" y="354.0" font-size="12.5" fill="#e07b39" text-anchor="start" font-weight="600">-23%</text>
<path d="M154.1,61.5 L199.8,115.5 L248.4,169.5 L289.0,223.5 L324.1,277.5 L356.0,331.5" fill="none" stroke="#2a6ba3" stroke-width="0.9" stroke-linejoin="round" stroke-linecap="round" stroke-opacity="0.6"/>
<path d="M171.7,61.5 L226.5,115.5 L284.9,169.5 L333.5,223.5 L375.8,277.5 L414.0,331.5" fill="none" stroke="#2a6ba3" stroke-width="0.9" stroke-linejoin="round" stroke-linecap="round" stroke-opacity="0.6"/>
<path d="M189.4,61.5 L253.3,115.5 L321.4,169.5 L378.1,223.5 L427.4,277.5 L472.0,331.5" fill="none" stroke="#2a6ba3" stroke-width="0.9" stroke-linejoin="round" stroke-linecap="round" stroke-opacity="0.6"/>
<path d="M207.0,61.5 L280.0,115.5 L357.9,169.5 L422.7,223.5 L479.0,277.5 L529.9,331.5" fill="none" stroke="#2a6ba3" stroke-width="0.9" stroke-linejoin="round" stroke-linecap="round" stroke-opacity="0.6"/>
<path d="M224.6,61.5 L306.8,115.5 L394.3,169.5 L467.3,223.5 L530.6,277.5 L587.9,331.5" fill="none" stroke="#2a6ba3" stroke-width="0.9" stroke-linejoin="round" stroke-linecap="round" stroke-opacity="0.6"/>
<path d="M160.4,81.5 L209.3,135.5 L261.4,189.5 L304.9,243.5 L342.6,297.5 L376.7,351.5" fill="none" stroke="#b3611f" stroke-width="0.9" stroke-linejoin="round" stroke-linecap="round" stroke-opacity="0.6"/>
<path d="M179.3,81.5 L238.0,135.5 L300.5,189.5 L352.7,243.5 L397.9,297.5 L438.8,351.5" fill="none" stroke="#b3611f" stroke-width="0.9" stroke-linejoin="round" stroke-linecap="round" stroke-opacity="0.6"/>
<path d="M198.2,81.5 L266.7,135.5 L339.6,189.5 L400.4,243.5 L453.2,297.5 L500.9,351.5" fill="none" stroke="#b3611f" stroke-width="0.9" stroke-linejoin="round" stroke-linecap="round" stroke-opacity="0.6"/>
<path d="M217.0,81.5 L295.3,135.5 L378.7,189.5 L448.2,243.5 L508.5,297.5 L563.1,351.5" fill="none" stroke="#b3611f" stroke-width="0.9" stroke-linejoin="round" stroke-linecap="round" stroke-opacity="0.6"/>
<path d="M235.9,81.5 L324.0,135.5 L417.8,189.5 L496.0,243.5 L563.8,297.5 L625.2,351.5" fill="none" stroke="#b3611f" stroke-width="0.9" stroke-linejoin="round" stroke-linecap="round" stroke-opacity="0.6"/>
<line x1="376.7" y1="359" x2="376.7" y2="365" stroke="#b3611f" stroke-width="1.1"/>
<text x="376.7" y="378.0" font-size="10.5" fill="#767f89" text-anchor="middle" font-weight="normal">5,000</text>
<line x1="438.8" y1="359" x2="438.8" y2="365" stroke="#b3611f" stroke-width="1.1"/>
<text x="438.8" y="378.0" font-size="10.5" fill="#767f89" text-anchor="middle" font-weight="normal">6,000</text>
<line x1="500.9" y1="359" x2="500.9" y2="365" stroke="#b3611f" stroke-width="1.1"/>
<text x="500.9" y="378.0" font-size="10.5" fill="#767f89" text-anchor="middle" font-weight="normal">7,000</text>
<line x1="563.1" y1="359" x2="563.1" y2="365" stroke="#b3611f" stroke-width="1.1"/>
<text x="563.1" y="378.0" font-size="10.5" fill="#767f89" text-anchor="middle" font-weight="normal">8,000</text>
<line x1="625.2" y1="359" x2="625.2" y2="365" stroke="#b3611f" stroke-width="1.1"/>
<text x="625.2" y="378.0" font-size="10.5" fill="#767f89" text-anchor="middle" font-weight="normal">9,000</text>
<text x="639.2" y="378.0" font-size="10.5" fill="#767f89" text-anchor="start" font-weight="normal">rpm</text>
<text x="66.0" y="378.0" font-size="11" fill="#767f89" text-anchor="start" font-weight="600">等回転数線</text>
<text x="66.0" y="476.0" font-size="11" fill="#767f89" text-anchor="start" font-weight="normal">下限は 3,900rpm、上限は 9,000rpm と余力条件（3.9kW）の厳しい方</text>
</svg>