<svg xmlns="http://www.w3.org/2000/svg" viewBox="0 0 760 516" width="760" height="516" font-family="-apple-system,'Helvetica Neue',Arial,'Hiragino Sans',Meiryo,sans-serif" role="img"><title>各段が受け持てる車速と回転数</title>
<line x1="62.0" y1="30" x2="62.0" y2="442" stroke="#808a94" stroke-width="1" opacity="0.2"/>
<text x="62.0" y="460.0" font-size="11.5" fill="#767f89" text-anchor="middle" font-weight="normal">0</text>
<line x1="137.1" y1="30" x2="137.1" y2="442" stroke="#808a94" stroke-width="1" opacity="0.2"/>
<text x="137.1" y="460.0" font-size="11.5" fill="#767f89" text-anchor="middle" font-weight="normal">20</text>
<line x1="212.2" y1="30" x2="212.2" y2="442" stroke="#808a94" stroke-width="1" opacity="0.2"/>
<text x="212.2" y="460.0" font-size="11.5" fill="#767f89" text-anchor="middle" font-weight="normal">40</text>
<line x1="287.3" y1="30" x2="287.3" y2="442" stroke="#808a94" stroke-width="1" opacity="0.2"/>
<text x="287.3" y="460.0" font-size="11.5" fill="#767f89" text-anchor="middle" font-weight="normal">60</text>
<line x1="362.4" y1="30" x2="362.4" y2="442" stroke="#808a94" stroke-width="1" opacity="0.2"/>
<text x="362.4" y="460.0" font-size="11.5" fill="#767f89" text-anchor="middle" font-weight="normal">80</text>
<line x1="437.5" y1="30" x2="437.5" y2="442" stroke="#808a94" stroke-width="1" opacity="0.2"/>
<text x="437.5" y="460.0" font-size="11.5" fill="#767f89" text-anchor="middle" font-weight="normal">100</text>
<line x1="512.6" y1="30" x2="512.6" y2="442" stroke="#808a94" stroke-width="1" opacity="0.2"/>
<text x="512.6" y="460.0" font-size="11.5" fill="#767f89" text-anchor="middle" font-weight="normal">120</text>
<line x1="587.7" y1="30" x2="587.7" y2="442" stroke="#808a94" stroke-width="1" opacity="0.2"/>
<text x="587.7" y="460.0" font-size="11.5" fill="#767f89" text-anchor="middle" font-weight="normal">140</text>
<text x="353.0" y="480.0" font-size="12.5" fill="#767f89" text-anchor="middle" font-weight="normal">車速 [km/h]</text>
<text x="15" y="236" font-size="12.5" fill="#767f89" text-anchor="middle" transform="rotate(-90 15 236)">エンジン回転数 [rpm]</text>
<line x1="62" y1="421.9" x2="644" y2="421.9" stroke="#808a94" stroke-width="1" opacity="0.2"/>
<text x="54.0" y="425.9" font-size="11" fill="#767f89" text-anchor="end" font-weight="normal">3,000</text>
<line x1="62" y1="371.7" x2="644" y2="371.7" stroke="#808a94" stroke-width="1" opacity="0.2"/>
<text x="54.0" y="375.7" font-size="11" fill="#767f89" text-anchor="end" font-weight="normal">4,000</text>
<line x1="62" y1="321.4" x2="644" y2="321.4" stroke="#808a94" stroke-width="1" opacity="0.2"/>
<text x="54.0" y="325.4" font-size="11" fill="#767f89" text-anchor="end" font-weight="normal">5,000</text>
<line x1="62" y1="271.2" x2="644" y2="271.2" stroke="#808a94" stroke-width="1" opacity="0.2"/>
<text x="54.0" y="275.2" font-size="11" fill="#767f89" text-anchor="end" font-weight="normal">6,000</text>
<line x1="62" y1="220.9" x2="644" y2="220.9" stroke="#808a94" stroke-width="1" opacity="0.2"/>
<text x="54.0" y="224.9" font-size="11" fill="#767f89" text-anchor="end" font-weight="normal">7,000</text>
<line x1="62" y1="170.7" x2="644" y2="170.7" stroke="#808a94" stroke-width="1" opacity="0.2"/>
<text x="54.0" y="174.7" font-size="11" fill="#767f89" text-anchor="end" font-weight="normal">8,000</text>
<line x1="62" y1="120.4" x2="644" y2="120.4" stroke="#808a94" stroke-width="1" opacity="0.2"/>
<text x="54.0" y="124.4" font-size="11" fill="#767f89" text-anchor="end" font-weight="normal">9,000</text>
<line x1="62" y1="70.2" x2="644" y2="70.2" stroke="#808a94" stroke-width="1" opacity="0.2"/>
<text x="54.0" y="74.2" font-size="11" fill="#767f89" text-anchor="end" font-weight="normal">10,000</text>
<line x1="62" y1="376.7" x2="644" y2="376.7" stroke="#767f89" stroke-width="1" stroke-dasharray="4 3" opacity="0.75"/>
<text x="650.0" y="380.7" font-size="10.5" fill="#767f89" text-anchor="start" font-weight="normal">3,900　実用下限</text>
<line x1="62" y1="170.7" x2="644" y2="170.7" stroke="#767f89" stroke-width="1" stroke-dasharray="4 3" opacity="0.75"/>
<text x="650.0" y="174.7" font-size="10.5" fill="#767f89" text-anchor="start" font-weight="normal">8,000　最大トルク</text>
<line x1="62" y1="120.4" x2="644" y2="120.4" stroke="#767f89" stroke-width="1" stroke-dasharray="4 3" opacity="0.75"/>
<text x="650.0" y="124.4" font-size="10.5" fill="#767f89" text-anchor="start" font-weight="normal">9,000　最高出力</text>
<line x1="62" y1="45.1" x2="644" y2="45.1" stroke="#767f89" stroke-width="1" stroke-dasharray="4 3" opacity="0.75"/>
<text x="650.0" y="49.1" font-size="10.5" fill="#767f89" text-anchor="start" font-weight="normal">10,500　レブ（想定）</text>
<line x1="130.5" y1="376.7" x2="220.1" y2="120.4" stroke="#3b82c4" stroke-width="6" stroke-linecap="round" opacity="0.9"/>
<line x1="135.4" y1="376.7" x2="231.3" y2="120.4" stroke="#e07b39" stroke-width="6" stroke-linecap="round" opacity="0.9"/>
<line x1="132.9" y1="380.7" x2="132.9" y2="386.7" stroke="#767f89" stroke-width="0.8" opacity="0.5"/>
<text x="132.9" y="396.7" font-size="12.5" fill="#767f89" text-anchor="middle" font-weight="600">1速</text>
<line x1="166.0" y1="376.7" x2="302.0" y2="120.4" stroke="#3b82c4" stroke-width="6" stroke-linecap="round" opacity="0.9"/>
<line x1="173.4" y1="376.7" x2="319.1" y2="120.4" stroke="#e07b39" stroke-width="6" stroke-linecap="round" opacity="0.9"/>
<line x1="169.7" y1="380.7" x2="169.7" y2="404.7" stroke="#767f89" stroke-width="0.8" opacity="0.5"/>
<text x="169.7" y="414.7" font-size="12.5" fill="#767f89" text-anchor="middle" font-weight="600">2速</text>
<line x1="203.8" y1="376.7" x2="389.2" y2="120.4" stroke="#3b82c4" stroke-width="6" stroke-linecap="round" opacity="0.9"/>
<line x1="213.9" y1="376.7" x2="412.6" y2="120.4" stroke="#e07b39" stroke-width="6" stroke-linecap="round" opacity="0.9"/>
<line x1="208.9" y1="380.7" x2="208.9" y2="386.7" stroke="#767f89" stroke-width="0.8" opacity="0.5"/>
<text x="208.9" y="396.7" font-size="12.5" fill="#767f89" text-anchor="middle" font-weight="600">3速</text>
<line x1="235.3" y1="376.7" x2="461.9" y2="120.4" stroke="#3b82c4" stroke-width="6" stroke-linecap="round" opacity="0.9"/>
<line x1="247.7" y1="376.7" x2="490.5" y2="120.4" stroke="#e07b39" stroke-width="6" stroke-linecap="round" opacity="0.9"/>
<line x1="241.5" y1="380.7" x2="241.5" y2="404.7" stroke="#767f89" stroke-width="0.8" opacity="0.5"/>
<text x="241.5" y="414.7" font-size="12.5" fill="#767f89" text-anchor="middle" font-weight="600">4速</text>
<line x1="262.7" y1="376.7" x2="525.1" y2="120.4" stroke="#3b82c4" stroke-width="6" stroke-linecap="round" opacity="0.9"/>
<path d="M522.9,152.5 L558.1,120.4" fill="none" stroke="#e07b39" stroke-width="2.0" stroke-linejoin="round" stroke-linecap="round" stroke-dasharray="3 3" stroke-opacity="0.55"/>
<line x1="277.0" y1="376.7" x2="522.9" y2="152.5" stroke="#e07b39" stroke-width="6" stroke-linecap="round" opacity="0.9"/>
<circle cx="522.9" cy="152.5" r="4.5" fill="#e07b39" stroke="#ffffff" stroke-width="1.2"/>
<line x1="269.8" y1="380.7" x2="269.8" y2="386.7" stroke="#767f89" stroke-width="0.8" opacity="0.5"/>
<text x="269.8" y="396.7" font-size="12.5" fill="#767f89" text-anchor="middle" font-weight="600">5速</text>
<path d="M512.6,180.9 L582.2,120.4" fill="none" stroke="#3b82c4" stroke-width="2.0" stroke-linejoin="round" stroke-linecap="round" stroke-dasharray="3 3" stroke-opacity="0.55"/>
<line x1="287.4" y1="376.7" x2="512.6" y2="180.9" stroke="#3b82c4" stroke-width="6" stroke-linecap="round" opacity="0.9"/>
<circle cx="512.6" cy="180.9" r="4.5" fill="#3b82c4" stroke="#ffffff" stroke-width="1.2"/>
<path d="M476.0,236.7 L619.3,120.4" fill="none" stroke="#e07b39" stroke-width="2.0" stroke-linejoin="round" stroke-linecap="round" stroke-dasharray="3 3" stroke-opacity="0.55"/>
<line x1="303.5" y1="376.7" x2="476.0" y2="236.7" stroke="#e07b39" stroke-width="6" stroke-linecap="round" opacity="0.9"/>
<circle cx="476.0" cy="236.7" r="4.5" fill="#e07b39" stroke="#ffffff" stroke-width="1.2"/>
<line x1="295.4" y1="380.7" x2="295.4" y2="404.7" stroke="#767f89" stroke-width="0.8" opacity="0.5"/>
<text x="295.4" y="414.7" font-size="12.5" fill="#767f89" text-anchor="middle" font-weight="600">6速</text>
<line x1="76" y1="56" x2="102" y2="56" stroke="#3b82c4" stroke-width="6" stroke-linecap="round"/>
<text x="110.0" y="60.0" font-size="12.5" fill="#3b82c4" text-anchor="start" font-weight="600">14T</text>
<line x1="76" y1="76" x2="102" y2="76" stroke="#e07b39" stroke-width="6" stroke-linecap="round"/>
<text x="110.0" y="80.0" font-size="12.5" fill="#e07b39" text-anchor="start" font-weight="600">15T</text>
<text x="76.0" y="94.0" font-size="11" fill="#767f89" text-anchor="start" font-weight="normal">破線＝回転数はまだ残っているが出力が足りない区間</text>
<text x="76.0" y="110.0" font-size="11" fill="#767f89" text-anchor="start" font-weight="normal">●＝出力で頭打ちになる点</text>
</svg>