<svg xmlns="http://www.w3.org/2000/svg" viewBox="0 0 720 440" width="720" height="440" font-family="-apple-system,'Helvetica Neue',Arial,'Hiragino Sans',Meiryo,sans-serif" role="img"><title>比のクラスタ（標準層）</title><rect x="0" y="0" width="720" height="440" fill="#ffffff"/>
<text x="60.0" y="34.0" font-size="14.5" fill="#1c1c1c" text-anchor="start" font-weight="600">比は段ごとに定数になるが、外れた点の素性は分からない</text>
<text x="60.0" y="53.0" font-size="11" fill="#767f89" text-anchor="start" font-weight="normal">ELM327 実走 n=28,941。横線は諸元から計算した各段の理論比</text>
<line x1="60.0" y1="76.0" x2="60.0" y2="384.0" stroke="#808a94" stroke-width="1" stroke-opacity="0.18"/>
<text x="60.0" y="401.0" font-size="11.5" fill="#767f89" text-anchor="middle" font-weight="normal">0</text>
<line x1="144.4" y1="76.0" x2="144.4" y2="384.0" stroke="#808a94" stroke-width="1" stroke-opacity="0.18"/>
<text x="144.4" y="401.0" font-size="11.5" fill="#767f89" text-anchor="middle" font-weight="normal">20</text>
<line x1="228.7" y1="76.0" x2="228.7" y2="384.0" stroke="#808a94" stroke-width="1" stroke-opacity="0.18"/>
<text x="228.7" y="401.0" font-size="11.5" fill="#767f89" text-anchor="middle" font-weight="normal">40</text>
<line x1="313.1" y1="76.0" x2="313.1" y2="384.0" stroke="#808a94" stroke-width="1" stroke-opacity="0.18"/>
<text x="313.1" y="401.0" font-size="11.5" fill="#767f89" text-anchor="middle" font-weight="normal">60</text>
<line x1="397.5" y1="76.0" x2="397.5" y2="384.0" stroke="#808a94" stroke-width="1" stroke-opacity="0.18"/>
<text x="397.5" y="401.0" font-size="11.5" fill="#767f89" text-anchor="middle" font-weight="normal">80</text>
<line x1="481.8" y1="76.0" x2="481.8" y2="384.0" stroke="#808a94" stroke-width="1" stroke-opacity="0.18"/>
<text x="481.8" y="401.0" font-size="11.5" fill="#767f89" text-anchor="middle" font-weight="normal">100</text>
<text x="52.0" y="388.0" font-size="11.5" fill="#767f89" text-anchor="end" font-weight="normal">50</text>
<text x="52.0" y="311.0" font-size="11.5" fill="#767f89" text-anchor="end" font-weight="normal">100</text>
<text x="52.0" y="234.0" font-size="11.5" fill="#767f89" text-anchor="end" font-weight="normal">150</text>
<text x="52.0" y="157.0" font-size="11.5" fill="#767f89" text-anchor="end" font-weight="normal">200</text>
<text x="52.0" y="80.0" font-size="11.5" fill="#767f89" text-anchor="end" font-weight="normal">250</text>
<text x="292.0" y="426.0" font-size="12" fill="#767f89" text-anchor="middle" font-weight="normal">車速（ECU 生値）[km/h]</text>
<text x="15" y="230" font-size="12" fill="#767f89" text-anchor="middle" transform="rotate(-90 15 230)">比　回転数 ÷ 車速 [rpm/(km/h)]</text>
<line x1="60.0" y1="129.9" x2="524.0" y2="129.9" stroke="#2a78d6" stroke-width="1.5" stroke-opacity="0.85"/>
<text x="65.0" y="125.9" font-size="11" fill="#2a78d6" text-anchor="start" font-weight="600">1速</text>
<line x1="60.0" y1="242.9" x2="524.0" y2="242.9" stroke="#eb6834" stroke-width="1.5" stroke-opacity="0.85"/>
<text x="65.0" y="238.9" font-size="11" fill="#eb6834" text-anchor="start" font-weight="600">2速</text>
<line x1="60.0" y1="301.1" x2="524.0" y2="301.1" stroke="#1baf7a" stroke-width="1.5" stroke-opacity="0.85"/>
<text x="65.0" y="297.1" font-size="11" fill="#1baf7a" text-anchor="start" font-weight="600">3速</text>
<line x1="60.0" y1="330.2" x2="524.0" y2="330.2" stroke="#eda100" stroke-width="1.5" stroke-opacity="0.85"/>
<text x="65.0" y="326.2" font-size="11" fill="#eda100" text-anchor="start" font-weight="600">4速</text>
<line x1="60.0" y1="348.0" x2="524.0" y2="348.0" stroke="#e87ba4" stroke-width="1.5" stroke-opacity="0.85"/>
<text x="65.0" y="344.0" font-size="11" fill="#e87ba4" text-anchor="start" font-weight="600">5速</text>
<line x1="60.0" y1="360.4" x2="524.0" y2="360.4" stroke="#008300" stroke-width="1.5" stroke-opacity="0.85"/>
<text x="65.0" y="356.4" font-size="11" fill="#008300" text-anchor="start" font-weight="600">6速</text>
<path d="M115,202h0M140,229h0M165,261h0M136,260h0M102,98h0M132,120h0M144,138h0M216,254h0M195,256h0M174,254h0M157,251h0M132,251h0M102,96h0M132,168h0M144,233h0M199,279h0M334,339h0M317,334h0M233,258h0M153,251h0M127,255h0M136,101h0M153,95h0M182,235h0M237,295h0M279,296h0M313,297h0M309,309h0M292,249h0M271,251h0M220,251h0M195,234h0M225,235h0M254,235h0M275,293h0M347,304h0M381,328h0M410,331h0M258,306h0M170,230h0M149,231h0M267,327h0M343,333h0M140,269h0M115,87h0M140,106h0M212,292h0M267,345h0M284,352h0M284,344h0M300,345h0M271,352h0M254,339h0M334,338h0M326,343h0M330,335h0M364,327h0M397,328h0M473,369h0M465,349h0M465,347h0M482,348h0M486,347h0M494,347h0M499,347h0M507,348h0M511,348h0M516,348h0M520,348h0M520,349h0M516,349h0M511,349h0M490,349h0M478,350h0M461,350h0M448,349h0M431,349h0M423,349h0M385,362h0M347,358h0M275,334h0M220,336h0M220,309h0M246,310h0M127,244h0M123,262h0M136,109h0M149,110h0M161,115h0M174,206h0M199,235h0M225,294h0M161,290h0M98,78h0M119,105h0M127,133h0M136,136h0M140,102h0M161,93h0M250,231h0M284,235h0M309,296h0M262,362h0M262,359h0M262,343h0M241,336h0M136,150h0M123,134h0M119,149h0M111,118h0M111,134h0M111,116h0M115,132h0M115,138h0M115,130h0M111,125h0M111,144h0M106,141h0M98,132h0M106,101h0M132,175h0M225,326h0M220,335h0M212,314h0M174,299h0M161,303h0M165,301h0M170,297h0M216,294h0M334,298h0M267,325h0M153,139h0M132,144h0M123,130h0M123,138h0M123,129h0M132,139h0M136,128h0M140,134h0M140,123h0M149,134h0M149,197h0M267,323h0M267,312h0M187,254h0M140,250h0M127,247h0M123,229h0M111,176h0M102,149h0M102,128h0M106,115h0M111,136h0M111,148h0M106,163h0M106,94h0M123,115h0M136,114h0M317,357h0M317,362h0M296,363h0M267,362h0M246,361h0M258,359h0M300,365h0M267,364h0M246,359h0M279,355h0M127,128h0M149,122h0M157,115h0M170,123h0M182,128h0M187,253h0M212,234h0M334,304h0M132,298h0M123,119h0M149,121h0M161,123h0M170,121h0M178,117h0M216,258h0M216,310h0M178,305h0M165,306h0M161,296h0M165,300h0M254,317h0M250,321h0M195,307h0M174,301h0M136,248h0M132,237h0M153,231h0M132,296h0M136,77h0M174,98h0M199,229h0M229,236h0M258,235h0M279,236h0M368,309h0M414,330h0M414,329h0M410,330h0M406,349h0M389,363h0M364,362h0M351,362h0M326,362h0M292,356h0M250,314h0M220,334h0M199,309h0M157,252h0M132,247h0M127,254h0M119,273h0M132,89h0M153,228h0M203,230h0M225,267h0M322,334h0M144,251h0M127,119h0M136,121h0M140,228h0M237,343h0M212,334h0M199,332h0M195,364h0M187,306h0M157,302h0M153,302h0M136,253h0M106,111h0M127,127h0M140,133h0M149,132h0M153,133h0M157,117h0M267,320h0M313,318h0M212,291h0M115,91h0M136,103h0M157,109h0M174,225h0M419,331h0M419,329h0M372,305h0M343,308h0M313,305h0M284,308h0M250,309h0M178,256h0M123,247h0M94,124h0M132,121h0M140,132h0M144,209h0M296,309h0M254,312h0M431,348h0M440,348h0M448,348h0M292,353h0M338,297h0M381,299h0M414,299h0M427,299h0M435,330h0M440,329h0M444,362h0M448,341h0M414,350h0M300,305h0M284,305h0M250,312h0M229,314h0M157,298h0M161,91h0M254,231h0M334,325h0M334,351h0M225,334h0M127,111h0M140,128h0M140,208h0M157,258h0M123,254h0M115,250h0M119,244h0M115,235h0M115,252h0M111,235h0M119,247h0M123,239h0M140,241h0M136,241h0M140,244h0M153,306h0M111,98h0M119,123h0M123,137h0M123,123h0M136,118h0M144,129h0M149,128h0M149,261h0M174,228h0M199,230h0M220,236h0M229,321h0M199,250h0M203,292h0M203,307h0M182,192h0M161,150h0M149,115h0M157,129h0M161,119h0M170,125h0M178,129h0M182,220h0M191,229h0M246,233h0M284,236h0M309,289h0M343,298h0M355,295h0M309,297h0M351,302h0M343,303h0M300,306h0M241,307h0M182,298h0M216,234h0M288,256h0M233,260h0M233,236h0M275,234h0M284,237h0M309,240h0M322,245h0M313,264h0M305,248h0M300,240h0M317,238h0M334,287h0M317,249h0M296,247h0M254,255h0M351,304h0M262,251h0M258,237h0M296,236h0M355,298h0M359,299h0M322,268h0M292,251h0M225,254h0M208,252h0M288,239h0M305,247h0M267,250h0M250,235h0M267,233h0M288,240h0M326,298h0M317,305h0M237,308h0M309,310h0M258,249h0M246,236h0M284,246h0M275,251h0M258,257h0M241,234h0M267,239h0M309,238h0M326,273h0M355,300h0M368,299h0M376,302h0M372,302h0M364,318h0M334,247h0M313,252h0M288,250h0M267,251h0M246,251h0M161,257h0M132,260h0M119,258h0M106,229h0M111,244h0M119,232h0M132,234h0M182,232h0M237,236h0M254,236h0M220,268h0M182,124h0M174,141h0M127,148h0M115,122h0M115,129h0M115,137h0M94,143h0M132,106h0M153,120h0M165,107h0M237,235h0M258,241h0M233,307h0M284,306h0M288,307h0M233,250h0M216,253h0M127,284h0M115,100h0M144,122h0M153,129h0M170,257h0M165,255h0M136,261h0M119,138h0M140,225h0M246,294h0M241,252h0M195,255h0M170,269h0M144,311h0M149,225h0M262,238h0M279,279h0M262,308h0M300,288h0M262,266h0M233,232h0M262,240h0M220,293h0M225,296h0M300,247h0M267,249h0M279,243h0M271,244h0M250,267h0M241,273h0M225,237h0M250,236h0M267,236h0M330,298h0M364,300h0M300,239h0M309,242h0M313,245h0M309,243h0M305,245h0M300,245h0M296,241h0M351,298h0M372,299h0M389,300h0M393,300h0M393,302h0M385,303h0M368,303h0M271,310h0M250,248h0M170,140h0M153,154h0M115,170h0M123,107h0M136,172h0M136,233h0M136,244h0M132,255h0M119,241h0M102,154h0M98,164h0M119,184h0M119,144h0M115,240h0M98,162h0M98,184h0M98,139h0M98,120h0M98,156h0M98,113h0M119,139h0M123,126h0M123,116h0M132,134h0M136,142h0M123,149h0M115,148h0M106,137h0M102,130h0M106,131h0M111,171h0M111,100h0M119,121h0M111,141h0M106,135h0M106,113h0M115,115h0M123,124h0M127,113h0M115,125h0M119,129h0M119,161h0M115,160h0M102,163h0M98,95h0M115,119h0M136,96h0M165,110h0M182,119h0M195,123h0M292,240h0M241,295h0M296,243h0M288,249h0M220,235h0M258,250h0M258,247h0M241,261h0M241,250h0M241,232h0M284,243h0M284,257h0M262,256h0M246,237h0M262,237h0M279,239h0M296,246h0M279,251h0M254,249h0M275,241h0M284,242h0M279,255h0M288,241h0M296,244h0M241,233h0M279,241h0M174,226h0M174,231h0M208,232h0M241,251h0M182,224h0M182,231h0M212,232h0M246,238h0M195,232h0M229,250h0M288,248h0M275,244h0M267,238h0M271,246h0M212,251h0M182,253h0M233,238h0M271,242h0M267,247h0M229,235h0M250,233h0M288,242h0M292,245h0M241,248h0M267,240h0M237,254h0M284,238h0M296,239h0M267,248h0M237,252h0M229,249h0M267,242h0M144,143h0M132,116h0M153,124h0M161,223h0M300,308h0M351,297h0M368,298h0M305,306h0M284,309h0M262,263h0M330,305h0M309,306h0M279,310h0M271,292h0M275,247h0M246,234h0M288,245h0M284,248h0M284,241h0M351,325h0M343,304h0M313,308h0M347,310h0M397,332h0M326,334h0M279,245h0M250,258h0M347,299h0M359,298h0M376,301h0M389,317h0M326,316h0M326,304h0M165,231h0M191,232h0M237,234h0M246,306h0M258,294h0M317,307h0M237,307h0M203,311h0M182,306h0M157,295h0M132,111h0M157,101h0M212,233h0M229,292h0M250,292h0M271,294h0M267,340h0M229,326h0M229,335h0M216,295h0M313,317h0M406,332h0M364,304h0M296,312h0M326,308h0M457,347h0M461,348h0M457,348h0M427,349h0M347,337h0M343,356h0M322,357h0M326,359h0M338,359h0M334,359h0M334,362h0M165,251h0M149,262h0M115,107h0M123,111h0M127,140h0M123,131h0M119,128h0M123,112h0M149,129h0M157,119h0M233,254h0M250,326h0M225,327h0M246,326h0M288,362h0M317,358h0M322,359h0M309,365h0M241,359h0M241,361h0M237,361h0M233,359h0M233,364h0M225,361h0M225,362h0M220,361h0M220,360h0M216,361h0M216,357h0M212,363h0M212,361h0M208,360h0M208,346h0M203,348h0M203,347h0M199,347h0M195,348h0M191,347h0M191,349h0M187,330h0M182,335h0M165,354h0M153,310h0M140,303h0M132,304h0M111,250h0M119,243h0M165,254h0M187,255h0M208,312h0M140,140h0M119,122h0M127,125h0M132,123h0M140,126h0M157,256h0M157,264h0M208,271h0M275,310h0M144,223h0M149,186h0M136,281h0M149,150h0M165,118h0M178,116h0M296,336h0M288,334h0M127,213h0M127,193h0M136,225h0M153,224h0M233,286h0M292,296h0M262,342h0M237,313h0M136,137h0M127,146h0M123,132h0M144,187h0M157,232h0M288,352h0M275,323h0M317,351h0M178,302h0M279,351h0M296,353h0M187,262h0M174,255h0M98,108h0M136,165h0M326,370h0M174,251h0M157,317h0M102,101h0M144,199h0M220,325h0M250,351h0M229,347h0M225,349h0M220,349h0M216,348h0M212,347h0M132,146h0M106,128h0M106,153h0M102,139h0M98,102h0M106,120h0M115,111h0M132,109h0M157,230h0M225,314h0M161,140h0M149,144h0M136,145h0M127,150h0M123,153h0M106,142h0M106,146h0M102,102h0M115,90h0M132,122h0M140,130h0M149,127h0M233,350h0M241,346h0M305,345h0M300,351h0M292,352h0M267,352h0M254,351h0M220,346h0M216,347h0M212,351h0M208,347h0M208,348h0M203,353h0M203,334h0M199,330h0M195,328h0M140,257h0M123,154h0M111,133h0M106,127h0M111,117h0M123,109h0M140,232h0M182,307h0M229,323h0M258,335h0M254,335h0M212,328h0M203,329h0M199,331h0M195,326h0M195,330h0M195,332h0M195,333h0M191,333h0M187,331h0M187,346h0M182,309h0M174,307h0M165,305h0M161,294h0M203,297h0M292,339h0M288,351h0M144,268h0M132,114h0M153,106h0M170,118h0M178,139h0M170,136h0M161,127h0M161,122h0M170,198h0M288,335h0M246,351h0M212,326h0M208,273h0M127,259h0M123,250h0M115,258h0M111,238h0M106,204h0M98,103h0M127,105h0M140,190h0M225,319h0M258,346h0M309,352h0M102,164h0M123,127h0M149,107h0M170,115h0M174,136h0M246,235h0M246,309h0M203,258h0M161,267h0M136,153h0M115,159h0M144,234h0M212,272h0M275,338h0M330,338h0M279,335h0M149,268h0M132,127h0M136,133h0M127,137h0M144,116h0M178,227h0M229,296h0M397,356h0M435,359h0M461,359h0M478,362h0M427,359h0M427,366h0M368,346h0M284,345h0M199,284h0M144,272h0M106,92h0M136,127h0M149,198h0M212,236h0M229,233h0M406,342h0M368,354h0M237,306h0M208,313h0M165,290h0M174,295h0M195,296h0M246,337h0M136,280h0M115,127h0M119,112h0M127,131h0M123,150h0M115,136h0M111,120h0M115,114h0M140,202h0M140,136h0M127,132h0M119,127h0M187,275h0M195,310h0M187,343h0M149,99h0M199,231h0M288,296h0M220,252h0M187,257h0M165,256h0M149,285h0M111,147h0M106,121h0M106,150h0M119,115h0M136,134h0M144,123h0M157,123h0M212,287h0M191,307h0M174,305h0M174,306h0M165,303h0M254,334h0M157,257h0M132,254h0M106,109h0M132,263h0M115,94h0M149,232h0M123,114h0M136,208h0M187,289h0M106,84h0M144,177h0M165,228h0M225,295h0M237,326h0M279,333h0M216,336h0M212,333h0M208,293h0M182,254h0M132,261h0M132,236h0M136,232h0M136,256h0M132,257h0M123,264h0M123,135h0M123,145h0M115,140h0M111,135h0M102,197h0M111,96h0M153,253h0M144,235h0M170,164h0M153,137h0M119,198h0M98,89h0M140,124h0M149,125h0M106,89h0M127,123h0M127,138h0M123,144h0M136,125h0M144,125h0M149,136h0M132,189h0M203,309h0M187,308h0M144,255h0M136,238h0M157,231h0M216,235h0M111,130h0M111,151h0M98,125h0M102,134h0M111,128h0M119,133h0M123,133h0M123,117h0M136,110h0M144,188h0M216,259h0M149,137h0M106,110h0M119,109h0M144,236h0M187,294h0M284,334h0M225,316h0M233,336h0M229,285h0M191,312h0M165,351h0M144,259h0M132,307h0M98,111h0M136,184h0M174,287h0M187,296h0M254,310h0M419,358h0M376,363h0M338,362h0M288,363h0M275,363h0M250,378h0M241,323h0M225,337h0M149,335h0M140,215h0M212,253h0M359,354h0M237,336h0M195,254h0M161,268h0M136,119h0M136,139h0M140,120h0M153,104h0M170,231h0M216,230h0M317,341h0M364,359h0M368,359h0M355,367h0M343,326h0M220,306h0M212,308h0M136,111h0M149,119h0M246,336h0M271,366h0M199,328h0M187,311h0M165,257h0M144,162h0M119,156h0M115,101h0M140,191h0M161,231h0M182,263h0M258,316h0M208,276h0M233,294h0M241,337h0M254,273h0M187,313h0M119,84h0M144,113h0M153,218h0M233,312h0M262,250h0M233,249h0M127,245h0M127,110h0M140,154h0M140,227h0M174,234h0M203,235h0M208,294h0M157,192h0M127,135h0M111,208h0M127,84h0M208,262h0M279,339h0M216,334h0M203,333h0M165,253h0M102,129h0M132,179h0M140,234h0M170,291h0M132,240h0M132,252h0M127,253h0M123,278h0M98,87h0M115,106h0M132,228h0M199,274h0M216,311h0M182,276h0M182,296h0M233,313h0M115,110h0M136,190h0M123,125h0M132,235h0M157,279h0M153,318h0M132,239h0M140,274h0M102,136h0M106,119h0M115,128h0M144,166h0M132,143h0M111,222h0M106,106h0M127,124h0M140,224h0M178,266h0M170,303h0M174,303h0M225,325h0M136,204h0M132,308h0M111,90h0M132,212h0M140,235h0M195,274h0M284,327h0M300,328h0M322,351h0M250,364h0M241,362h0M233,360h0M229,361h0M225,338h0M216,337h0M187,291h0M127,115h0M140,240h0M229,350h0M225,347h0M220,347h0M225,348h0M233,343h0M191,309h0M140,299h0M136,231h0M195,283h0M254,358h0M284,363h0M300,359h0M250,362h0M292,364h0M262,345h0M258,337h0M195,266h0M212,231h0M241,228h0M275,272h0M317,295h0M343,288h0M300,333h0M262,312h0M191,253h0M191,235h0M271,334h0M233,321h0M203,255h0M182,257h0M170,272h0M149,322h0M123,96h0M157,229h0M191,297h0M191,310h0M161,254h0M123,266h0M132,90h0M174,229h0M170,260h0M153,254h0M136,285h0M119,102h0M127,108h0M136,126h0M140,144h0M136,316h0M94,150h0M119,111h0M119,103h0M132,105h0M161,97h0M191,230h0M220,228h0M254,228h0M288,221h0M343,297h0M423,329h0M431,330h0M397,350h0M275,307h0M393,340h0M144,275h0M94,127h0M94,101h0M153,103h0M355,327h0M385,342h0M313,306h0M174,139h0M157,138h0M119,210h0M144,95h0M170,222h0M220,295h0M161,160h0M132,181h0M123,78h0M161,100h0M187,217h0M220,229h0M351,327h0M368,340h0M334,334h0M115,84h0M136,120h0M144,119h0M149,211h0M229,254h0M195,253h0M229,306h0M187,251h0M170,258h0M157,148h0M140,121h0M153,125h0M157,180h0M225,310h0M250,352h0M246,350h0M241,347h0M300,358h0M330,327h0M427,329h0M444,329h0M444,356h0M381,362h0M343,350h0M334,297h0M376,299h0M385,326h0M376,304h0M359,304h0M343,325h0M376,353h0M364,325h0M338,334h0M381,332h0M347,302h0M351,299h0M372,298h0M389,333h0M397,331h0M393,332h0M376,327h0M402,346h0M419,349h0M397,352h0M364,346h0M414,349h0M364,337h0M381,346h0M355,333h0M309,305h0M284,296h0M300,296h0M355,336h0M355,297h0M343,305h0M279,297h0M372,363h0M330,326h0M284,326h0M372,333h0M334,333h0M389,332h0M284,325h0M127,302h0M127,100h0M149,112h0M165,124h0M178,161h0M182,290h0M187,230h0M174,142h0M157,143h0M144,153h0M119,142h0M111,95h0M140,104h0M165,95h0M195,146h0M275,235h0M313,335h0M258,296h0M343,327h0M376,336h0M292,306h0M326,309h0M355,299h0M359,300h0M355,303h0M355,301h0M359,308h0M292,308h0M258,233h0M300,313h0M203,315h0M271,238h0M258,308h0M212,320h0M191,353h0M178,362h0M165,291h0M161,228h0M182,297h0M195,231h0M165,233h0M157,233h0M271,282h0M199,233h0M220,260h0M178,232h0M199,254h0M233,289h0M216,308h0M153,256h0M157,235h0M161,255h0M153,255h0M220,287h0M203,251h0M208,251h0M191,233h0M203,232h0M203,254h0M233,263h0M237,249h0M258,260h0M233,251h0M229,234h0M225,311h0M161,305h0M153,309h0M140,218h0M136,157h0M132,112h0M136,221h0M254,260h0M178,260h0M170,213h0M174,256h0M203,260h0M115,266h0M144,104h0M165,114h0M182,120h0M191,321h0M165,345h0M149,163h0M132,125h0M140,98h0M161,104h0M182,114h0M195,110h0M203,253h0M241,235h0M258,234h0M178,258h0M144,300h0M149,281h0M144,284h0M140,286h0M165,232h0M254,251h0M225,236h0M262,290h0M216,290h0M208,310h0M267,253h0M208,257h0M153,258h0M136,218h0M123,93h0M165,229h0M170,253h0M144,231h0M144,290h0M115,80h0M132,102h0M140,179h0M149,228h0M199,261h0M275,260h0M258,259h0M288,236h0M305,241h0M309,241h0M309,245h0M305,244h0M246,254h0M250,254h0M140,253h0M165,267h0M153,263h0M225,252h0M275,296h0M284,307h0M233,253h0M191,234h0M144,330h0M140,109h0M153,122h0M165,127h0M170,120h0M212,248h0M178,223h0M132,258h0M149,230h0M161,221h0M165,226h0M187,233h0M178,259h0M153,261h0M136,255h0M136,252h0M123,268h0M119,86h0M144,183h0M132,135h0M144,130h0M149,118h0M161,130h0M161,141h0M149,141h0M144,139h0M136,131h0M136,135h0M140,129h0M140,117h0M144,127h0M149,130h0M153,127h0M157,130h0M161,174h0M178,262h0M153,269h0M132,150h0M127,117h0M136,112h0M153,149h0M140,131h0M136,147h0M153,134h0M149,133h0M149,135h0M149,126h0M153,115h0M157,135h0M161,132h0M161,126h0M165,143h0M165,147h0M127,248h0M153,229h0M178,230h0M140,236h0M149,253h0M153,260h0M132,249h0M144,267h0M140,231h0M191,295h0M191,305h0M149,258h0M127,246h0M127,240h0M127,235h0M132,230h0M153,145h0M144,142h0M127,141h0M115,121h0M115,141h0M111,121h0M123,141h0M119,136h0M119,145h0M111,143h0M115,135h0M144,222h0M123,252h0M115,245h0M115,199h0M119,279h0M119,274h0M161,229h0M284,297h0M233,295h0M170,283h0M132,78h0M157,173h0M220,234h0M267,297h0M397,345h0M165,142h0M144,148h0M111,200h0M136,91h0M170,176h0M229,230h0M313,326h0M309,294h0M368,362h0M359,337h0M419,348h0M368,368h0M389,350h0M372,350h0M334,335h0M334,305h0M368,345h0M343,351h0M292,327h0M271,325h0M233,335h0M212,327h0M237,334h0M279,325h0M279,377h0M237,353h0M229,258h0M229,257h0M246,296h0M262,307h0M279,334h0M364,333h0M317,338h0M300,334h0M313,341h0M271,312h0M208,253h0M191,271h0M178,350h0M132,289h0M127,112h0M140,119h0M203,233h0M296,334h0M326,327h0M149,146h0M136,155h0M140,96h0M161,230h0M187,259h0M406,330h0M419,330h0M410,332h0M212,330h0M178,264h0M288,322h0M296,326h0M296,327h0M309,335h0M237,351h0M229,349h0M241,326h0M237,350h0M271,351h0M241,351h0M233,346h0M237,339h0M140,146h0M132,151h0M216,307h0M212,336h0M182,368h0M132,108h0M157,118h0M165,149h0M250,308h0M317,313h0M343,353h0M334,316h0M191,255h0M275,295h0M313,325h0M111,112h0M136,230h0M182,295h0M229,307h0M170,305h0M322,354h0M317,346h0M322,343h0M317,355h0M170,256h0M157,306h0M140,310h0M132,92h0M187,231h0M212,225h0M305,337h0M250,307h0M225,308h0M132,81h0M157,223h0M187,228h0M279,295h0M309,350h0M292,351h0M275,340h0M225,273h0M182,259h0M140,267h0M144,121h0M305,296h0M397,337h0M414,346h0M427,347h0M440,347h0M448,347h0M461,363h0M473,359h0M469,362h0M482,359h0M507,361h0M503,360h0M494,359h0M524,362h0M452,359h0M452,358h0M452,362h0M465,363h0M473,363h0M482,362h0M516,360h0M524,360h0M410,359h0M410,365h0M393,355h0M389,353h0M389,351h0M406,346h0M431,347h0M452,348h0M461,347h0M469,348h0M473,348h0M473,347h0M478,349h0M410,357h0M364,351h0M343,345h0M423,347h0M448,358h0M516,361h0M435,362h0M427,358h0M419,359h0M461,362h0M465,359h0M440,362h0M402,350h0M338,337h0M284,337h0M393,350h0M381,368h0M359,362h0M288,337h0M322,345h0M393,357h0M351,359h0M347,359h0M347,362h0M389,359h0M406,362h0M330,353h0M300,339h0M199,334h0M191,269h0M292,334h0M212,349h0M174,253h0M225,281h0M296,313h0M233,351h0M229,351h0M220,351h0M136,257h0M115,85h0M144,147h0M203,294h0M199,260h0M115,150h0M119,98h0M136,97h0M153,187h0M132,250h0M123,246h0M119,239h0M115,238h0M111,248h0M127,230h0M136,251h0M127,242h0M119,248h0M115,242h0M94,96h0M98,137h0M98,130h0M140,95h0M149,101h0M157,167h0M149,310h0M136,193h0M136,169h0M157,213h0M174,209h0M174,200h0M199,310h0M187,295h0M191,294h0M199,311h0M195,316h0M174,355h0M174,350h0M136,300h0M140,256h0M140,214h0M182,287h0M191,284h0M191,279h0M208,290h0M212,307h0M199,281h0M165,277h0M140,277h0M140,287h0M127,156h0M161,269h0M161,279h0M140,201h0M140,186h0M157,270h0M123,86h0M136,158h0M127,187h0M127,199h0M115,142h0M115,89h0M123,122h0M127,158h0M111,99h0M140,223h0M144,225h0M149,254h0M144,265h0M144,260h0M170,266h0M149,259h0M149,269h0M149,290h0M132,166h0M153,216h0M170,199h0M195,293h0M203,262h0M203,277h0M187,267h0M174,261h0M165,274h0M165,296h0M144,295h0M165,162h0M203,263h0M212,294h0M220,310h0M220,316h0M220,317h0M203,293h0M208,318h0M208,322h0M191,313h0M187,309h0M182,305h0M182,284h0M203,256h0M258,325h0M258,324h0M279,336h0M279,341h0M279,345h0M258,338h0M203,317h0M191,308h0M178,313h0M165,304h0M161,263h0M161,274h0M115,105h0M153,194h0M153,178h0M178,219h0M195,269h0M195,264h0M225,293h0M203,310h0M174,320h0M174,349h0M123,143h0M149,210h0M199,288h0M216,279h0M216,273h0M241,294h0M258,336h0M250,318h0M241,321h0M199,278h0M199,290h0M157,281h0M157,299h0M140,175h0M174,185h0M250,257h0M288,311h0M275,311h0M199,271h0M174,266h0M174,260h0M178,172h0M225,284h0M225,279h0M254,291h0M254,292h0M267,306h0M267,308h0M258,309h0M258,311h0M246,316h0M246,324h0M208,317h0M199,289h0M212,325h0M212,323h0M220,326h0M237,335h0M237,325h0M237,322h0M241,338h0M216,317h0M191,290h0M153,290h0M246,285h0M267,296h0M275,276h0M275,286h0M216,293h0M182,266h0M149,203h0M174,188h0M208,291h0M220,277h0M220,272h0M254,290h0M254,287h0M254,319h0M279,344h0M292,345h0M296,345h0M305,344h0M305,343h0M309,364h0M309,366h0M288,365h0M279,342h0M254,336h0M246,335h0M241,339h0M241,341h0M241,343h0M220,342h0M220,315h0M208,311h0M195,320h0M195,324h0M170,313h0M170,267h0M149,293h0M136,159h0M136,132h0M174,220h0M199,285h0M225,274h0M250,293h0M262,322h0M279,323h0M292,322h0M322,358h0M330,358h0M330,357h0M338,358h0M351,358h0M351,356h0M364,358h0M372,358h0M372,357h0M389,364h0M351,363h0M351,365h0M338,367h0M338,368h0M300,367h0M300,368h0M288,356h0M300,363h0M284,358h0M317,359h0M305,363h0M279,357h0M271,355h0M271,356h0M250,316h0M229,312h0M208,265h0M208,280h0M187,273h0M161,324h0M132,140h0M144,230h0M149,226h0M149,208h0M161,224h0M191,211h0M191,190h0M225,292h0M237,285h0M237,275h0M262,289h0M284,283h0M284,281h0M309,313h0M262,311h0M262,314h0M241,317h0M241,310h0M237,253h0M317,309h0M381,327h0M389,343h0M385,351h0M381,355h0M381,358h0M351,351h0M330,345h0M330,344h0M330,343h0M343,344h0M359,351h0M359,353h0M347,353h0M334,352h0M313,310h0M313,315h0M313,320h0M267,322h0M220,313h0M225,262h0M305,334h0M347,338h0M347,336h0M372,344h0M397,358h0M406,363h0M406,364h0M385,365h0M364,363h0M338,342h0M296,339h0M296,340h0M271,322h0M229,341h0M229,356h0M174,336h0M132,148h0M174,201h0M191,222h0M191,207h0M191,197h0M279,272h0M241,259h0M233,277h0M233,290h0M199,263h0M191,266h0M170,282h0M149,219h0M149,205h0M161,226h0M174,222h0M195,223h0M220,314h0M212,296h0M216,292h0M229,295h0M212,315h0M191,277h0M191,286h0M149,280h0M127,229h0M132,208h0M191,261h0M191,258h0M170,290h0M149,278h0M127,279h0M127,286h0M115,237h0M119,206h0M119,199h0M127,270h0M115,96h0M157,197h0M191,152h0M250,282h0M279,273h0M279,262h0M347,324h0M347,320h0M368,326h0M410,364h0M389,358h0M406,359h0M393,363h0M385,357h0M351,353h0M343,354h0M334,358h0M305,352h0M288,345h0M313,344h0M309,345h0M309,343h0M343,339h0M326,335h0M309,334h0M284,338h0M284,342h0M250,320h0M225,321h0M225,324h0M191,263h0M178,257h0M174,273h0M174,276h0M153,276h0M144,257h0M136,227h0M136,214h0M170,117h0M262,272h0M317,325h0M317,324h0M330,325h0M364,343h0M376,351h0M364,352h0M364,353h0M347,351h0M347,352h0M330,337h0M330,340h0M313,336h0M296,343h0M271,337h0M233,311h0M220,320h0M220,323h0M178,265h0M161,277h0M149,272h0M127,192h0M140,183h0M140,167h0M165,225h0M174,216h0M191,231h0M199,223h0M199,213h0M216,227h0M225,227h0M237,260h0M237,271h0M220,264h0M199,277h0M165,329h0M161,165h0M195,152h0M250,284h0M262,283h0M279,277h0M317,296h0M326,326h0M326,325h0M347,326h0M359,346h0M351,334h0M326,324h0M292,309h0M275,319h0M275,326h0M241,291h0M220,292h0M246,325h0M254,325h0M254,326h0M241,334h0M250,289h0M262,295h0M279,307h0M254,309h0M254,313h0M216,309h0M216,312h0M199,258h0M199,269h0M187,263h0M178,284h0M178,290h0M153,262h0M98,80h0M106,100h0M106,88h0M123,87h0M157,142h0M157,153h0M153,172h0M153,84h0M233,208h0M275,210h0M305,238h0M288,314h0M288,319h0M233,314h0M187,310h0M178,296h0M182,291h0M182,272h0M229,271h0M229,274h0M262,317h0M246,308h0M229,310h0M199,283h0M178,263h0M161,265h0M153,259h0M144,266h0M144,274h0M132,153h0M157,216h0M174,187h0M174,215h0M132,187h0M132,204h0M111,81h0M144,94h0M144,84h0M153,180h0M153,199h0M136,163h0M123,182h0" stroke="#1c1c1c" stroke-width="2.6" stroke-opacity="0.2" stroke-linecap="round" fill="none"/>
<path d="M111,102h0M123,121h0M132,110h0M161,241h0M157,246h0M149,244h0M144,248h0M119,113h0M174,233h0M182,236h0M191,237h0M284,304h0M161,252h0M161,242h0M187,232h0M220,238h0M237,305h0M220,282h0M199,248h0M178,251h0M165,250h0M140,246h0M123,128h0M203,298h0M267,334h0M262,333h0M250,333h0M233,333h0M225,333h0M288,305h0M258,305h0M170,254h0M140,252h0M216,233h0M262,297h0M296,297h0M330,299h0M338,298h0M338,333h0M326,333h0M246,250h0M195,257h0M174,250h0M305,298h0M326,297h0M364,328h0M397,329h0M402,331h0M385,331h0M347,333h0M296,333h0M225,249h0M195,251h0M170,233h0M191,238h0M237,239h0M246,241h0M246,297h0M330,328h0M262,328h0M144,252h0M157,250h0M288,346h0M292,350h0M292,346h0M326,350h0M313,350h0M326,346h0M305,351h0M229,328h0M229,327h0M267,333h0M313,328h0M305,327h0M305,328h0M322,346h0M385,329h0M410,329h0M419,347h0M410,362h0M457,359h0M499,360h0M440,349h0M414,348h0M402,349h0M397,349h0M440,359h0M448,362h0M397,362h0M284,333h0M216,327h0M220,328h0M220,248h0M195,248h0M149,249h0M144,247h0M132,243h0M123,120h0M187,234h0M212,235h0M313,304h0M246,245h0M225,250h0M208,250h0M195,252h0M178,250h0M132,130h0M195,237h0M225,233h0M338,328h0M317,361h0M305,360h0M275,362h0M258,362h0M250,361h0M246,360h0M262,360h0M267,359h0M250,335h0M216,247h0M203,250h0M191,250h0M165,247h0M115,134h0M136,245h0M144,239h0M153,236h0M161,236h0M187,303h0M182,299h0M191,300h0M195,298h0M208,297h0M262,334h0M233,334h0M182,251h0M157,239h0M165,260h0M149,248h0M144,237h0M149,240h0M187,299h0M212,304h0M241,327h0M237,327h0M182,304h0M170,301h0M140,242h0M140,245h0M144,243h0M199,304h0M187,304h0M178,303h0M174,302h0M170,304h0M161,300h0M199,296h0M317,298h0M343,300h0M347,303h0M326,305h0M199,249h0M119,118h0M127,129h0M132,118h0M144,128h0M178,236h0M187,236h0M195,238h0M203,236h0M225,305h0M275,327h0M220,327h0M199,251h0M174,252h0M161,251h0M153,248h0M132,241h0M195,297h0M296,351h0M309,359h0M313,359h0M313,362h0M284,362h0M296,362h0M254,361h0M250,359h0M292,363h0M284,359h0M271,362h0M288,359h0M300,362h0M279,362h0M271,333h0M246,246h0M233,248h0M220,249h0M161,248h0M111,97h0M136,122h0M229,248h0M296,298h0M326,299h0M338,300h0M322,304h0M296,305h0M279,305h0M271,304h0M195,250h0M182,252h0M153,252h0M140,248h0M136,250h0M136,113h0M178,254h0M208,236h0M233,237h0M229,247h0M216,237h0M233,306h0M208,305h0M191,304h0M182,303h0M170,302h0M174,300h0M178,297h0M229,333h0M208,330h0M203,328h0M191,252h0M149,247h0M300,298h0M322,299h0M406,329h0M419,362h0M343,359h0M322,362h0M305,362h0M271,350h0M262,351h0M208,307h0M170,251h0M233,297h0M212,305h0M136,242h0M132,246h0M119,140h0M115,103h0M119,124h0M149,236h0M178,300h0M305,333h0M208,331h0M203,332h0M178,301h0M174,304h0M144,254h0M115,97h0M140,125h0M275,306h0M140,249h0M136,254h0M225,234h0M347,328h0M402,329h0M423,331h0M220,307h0M191,306h0M157,253h0M153,233h0M203,237h0M246,295h0M250,296h0M313,298h0M359,328h0M372,329h0M385,350h0M393,347h0M414,347h0M423,348h0M427,348h0M444,347h0M376,359h0M330,350h0M220,329h0M393,331h0M351,303h0M330,304h0M292,304h0M271,305h0M254,308h0M237,245h0M195,230h0M317,297h0M355,328h0M376,350h0M351,350h0M305,350h0M216,306h0M111,105h0M153,239h0M149,245h0M136,249h0M115,246h0M132,244h0M132,242h0M136,247h0M132,245h0M144,238h0M149,241h0M153,238h0M123,136h0M132,129h0M140,247h0M136,234h0M153,232h0M237,237h0M250,306h0M216,250h0M161,244h0M216,249h0M208,248h0M208,238h0M246,243h0M254,305h0M246,305h0M212,252h0M216,236h0M229,239h0M237,247h0M212,246h0M187,256h0M208,239h0M212,247h0M216,251h0M208,249h0M203,248h0M182,250h0M149,251h0M153,234h0M174,235h0M372,332h0M322,333h0M343,301h0M262,306h0M182,302h0M195,303h0M199,234h0M241,237h0M254,240h0M284,239h0M271,249h0M254,243h0M246,242h0M279,246h0M262,248h0M254,239h0M262,242h0M267,243h0M317,299h0M296,306h0M267,245h0M250,251h0M229,237h0M241,240h0M250,241h0M258,243h0M262,239h0M271,243h0M275,240h0M347,300h0M275,246h0M212,249h0M208,235h0M225,238h0M288,298h0M347,298h0M359,301h0M334,303h0M241,238h0M254,242h0M241,247h0M241,241h0M250,243h0M343,299h0M351,301h0M262,241h0M262,246h0M258,246h0M250,245h0M300,242h0M258,245h0M241,249h0M292,298h0M300,297h0M258,239h0M271,241h0M275,243h0M284,240h0M288,244h0M229,246h0M191,249h0M165,235h0M262,244h0M267,246h0M254,245h0M246,248h0M115,146h0M102,99h0M178,235h0M216,232h0M187,298h0M182,301h0M191,299h0M199,303h0M296,296h0M338,303h0M317,303h0M305,305h0M271,306h0M338,301h0M305,304h0M267,307h0M254,304h0M250,249h0M199,253h0M161,253h0M144,249h0M136,240h0M144,246h0M178,234h0M208,296h0M225,297h0M241,306h0M220,305h0M216,296h0M326,302h0M305,297h0M262,249h0M250,239h0M275,242h0M393,330h0M385,332h0M326,303h0M246,249h0M250,244h0M254,238h0M262,243h0M262,247h0M254,246h0M220,237h0M229,251h0M225,251h0M225,248h0M250,240h0M246,240h0M250,237h0M309,298h0M300,304h0M237,296h0M254,297h0M279,247h0M250,250h0M237,248h0M250,242h0M258,240h0M292,297h0M237,240h0M288,306h0M233,239h0M351,300h0M364,301h0M338,302h0M288,297h0M330,303h0M288,304h0M296,304h0M267,305h0M132,136h0M119,130h0M127,136h0M127,121h0M132,126h0M132,138h0M115,144h0M237,238h0M271,240h0M292,305h0M343,302h0M347,301h0M322,303h0M317,304h0M254,248h0M241,239h0M258,238h0M271,247h0M267,244h0M258,248h0M254,244h0M195,249h0M203,252h0M165,240h0M271,245h0M250,246h0M216,248h0M199,252h0M250,238h0M275,239h0M279,244h0M275,248h0M275,245h0M199,237h0M250,247h0M220,250h0M241,246h0M182,233h0M203,234h0M288,246h0M262,245h0M246,247h0M246,239h0M258,242h0M191,236h0M258,244h0M187,235h0M123,170h0M385,301h0M389,329h0M385,328h0M279,309h0M275,297h0M262,298h0M250,297h0M309,304h0M322,305h0M338,299h0M338,327h0M322,298h0M343,334h0M317,332h0M381,331h0M397,330h0M402,330h0M402,347h0M406,347h0M212,237h0M241,297h0M182,237h0M182,248h0M368,328h0M351,332h0M326,332h0M170,299h0M288,350h0M275,346h0M258,334h0M199,297h0M241,296h0M381,329h0M262,296h0M410,347h0M435,347h0M376,332h0M330,359h0M338,361h0M347,360h0M355,360h0M343,361h0M330,361h0M326,361h0M157,245h0M119,141h0M115,120h0M165,130h0M220,296h0M216,329h0M258,327h0M246,327h0M220,333h0M296,346h0M300,350h0M292,362h0M305,359h0M296,358h0M271,359h0M254,359h0M229,360h0M170,252h0M123,118h0M140,138h0M233,305h0M233,309h0M153,246h0M313,333h0M203,303h0M161,250h0M144,250h0M174,236h0M364,350h0M258,326h0M309,333h0M258,350h0M258,347h0M246,334h0M170,255h0M115,118h0M195,236h0M267,346h0M284,350h0M262,350h0M258,351h0M305,346h0M275,350h0M187,297h0M284,346h0M174,249h0M132,115h0M161,235h0M191,298h0M216,333h0M212,329h0M254,346h0M246,348h0M241,349h0M237,349h0M203,306h0M187,305h0M208,332h0M191,251h0M170,234h0M262,336h0M178,252h0M288,333h0M279,327h0M271,346h0M246,347h0M237,347h0M233,349h0M233,348h0M233,347h0M313,346h0M237,348h0M229,348h0M144,242h0M161,233h0M212,331h0M203,330h0M199,329h0M153,247h0M300,346h0M241,348h0M250,346h0M262,346h0M233,326h0M216,328h0M208,328h0M157,249h0M153,249h0M330,362h0M195,233h0M140,239h0M149,239h0M153,235h0M161,234h0M322,328h0M355,346h0M423,359h0M444,359h0M343,346h0M347,346h0M351,346h0M317,350h0M338,346h0M334,346h0M271,327h0M161,249h0M271,297h0M372,328h0M410,349h0M385,359h0M372,360h0M338,350h0M330,333h0M368,350h0M322,350h0M208,329h0M149,250h0M127,134h0M149,234h0M157,236h0M165,237h0M170,237h0M149,246h0M174,232h0M364,332h0M262,305h0M153,244h0M322,327h0M292,333h0M187,252h0M132,117h0M127,109h0M212,332h0M140,243h0M149,238h0M157,234h0M132,131h0M140,238h0M140,251h0M178,231h0M199,236h0M225,306h0M136,236h0M149,235h0M254,327h0M309,328h0M393,359h0M343,360h0M347,361h0M254,362h0M355,350h0M127,118h0M330,346h0M359,359h0M389,362h0M317,333h0M233,308h0M178,299h0M170,235h0M208,304h0M233,296h0M233,327h0M212,250h0M225,307h0M199,305h0M182,260h0M195,306h0M199,306h0M157,238h0M212,306h0M178,304h0M136,129h0M149,252h0M119,114h0M250,350h0M246,349h0M254,350h0M237,309h0M279,304h0M250,334h0M212,297h0M250,295h0M376,328h0M444,348h0M381,350h0M317,327h0M376,329h0M347,350h0M368,327h0M376,346h0M385,346h0M254,306h0M334,327h0M317,328h0M351,333h0M334,350h0M359,333h0M343,328h0M389,331h0M334,328h0M381,359h0M359,350h0M326,328h0M208,234h0M178,233h0M195,235h0M178,253h0M182,234h0M140,237h0M170,232h0M157,133h0M149,233h0M195,305h0M123,242h0M376,362h0M372,346h0M402,362h0M372,362h0M254,295h0M258,297h0M309,346h0M465,362h0M431,359h0M448,359h0M503,359h0M507,360h0M511,361h0M503,361h0M478,359h0M511,360h0M423,362h0M402,359h0M397,359h0M187,293h0M250,322h0M212,311h0M296,365h0M170,275h0M313,345h0M385,358h0" stroke="#1c1c1c" stroke-width="2.6" stroke-opacity="0.42" stroke-linecap="round" fill="none"/>
<path d="M149,237h0M170,244h0M170,239h0M174,242h0M174,245h0M174,243h0M170,243h0M170,246h0M170,245h0M165,241h0M153,237h0M165,236h0M195,241h0M199,244h0M199,242h0M199,238h0M203,241h0M208,300h0M212,300h0M216,300h0M220,302h0M225,303h0M225,300h0M229,302h0M229,299h0M237,299h0M246,299h0M254,299h0M262,301h0M271,299h0M279,301h0M284,301h0M288,302h0M288,301h0M284,302h0M279,302h0M271,300h0M262,304h0M241,244h0M246,301h0M246,300h0M246,298h0M250,303h0M250,302h0M250,300h0M246,303h0M241,301h0M241,300h0M254,301h0M258,300h0M262,300h0M271,301h0M271,302h0M267,300h0M267,304h0M262,302h0M254,302h0M241,304h0M237,302h0M233,301h0M229,303h0M187,246h0M149,242h0M144,245h0M170,236h0M182,241h0M191,242h0M208,298h0M216,302h0M216,297h0M225,302h0M258,302h0M262,299h0M250,331h0M246,329h0M246,331h0M246,332h0M246,330h0M246,328h0M250,330h0M254,330h0M258,331h0M262,330h0M267,331h0M267,329h0M271,331h0M271,330h0M271,328h0M241,331h0M225,329h0M229,330h0M233,330h0M237,329h0M241,330h0M250,329h0M254,329h0M258,330h0M258,328h0M262,331h0M262,329h0M271,329h0M275,332h0M275,330h0M275,329h0M279,331h0M279,330h0M284,330h0M284,329h0M288,329h0M292,329h0M296,331h0M296,329h0M300,330h0M305,330h0M309,330h0M313,331h0M313,330h0M317,330h0M317,329h0M322,330h0M322,329h0M326,331h0M326,347h0M326,348h0M330,348h0M334,349h0M334,347h0M338,348h0M338,349h0M334,348h0M326,349h0M317,349h0M313,347h0M309,348h0M309,349h0M305,347h0M305,348h0M309,347h0M313,348h0M317,348h0M322,348h0M322,347h0M330,347h0M343,349h0M343,348h0M237,303h0M237,300h0M220,247h0M203,249h0M187,250h0M347,331h0M343,330h0M343,331h0M334,330h0M330,331h0M322,332h0M309,329h0M305,332h0M305,331h0M305,329h0M330,330h0M338,329h0M174,237h0M372,331h0M359,332h0M334,332h0M284,332h0M208,247h0M178,248h0M170,241h0M165,248h0M153,245h0M161,238h0M182,244h0M187,241h0M195,240h0M199,241h0M208,240h0M212,240h0M216,246h0M216,241h0M225,239h0M237,301h0M233,302h0M225,299h0M229,298h0M233,299h0M233,300h0M233,304h0M241,299h0M250,301h0M267,332h0M258,329h0M267,330h0M279,329h0M288,330h0M292,330h0M296,330h0M309,331h0M313,332h0M313,329h0M351,328h0M364,330h0M368,329h0M368,332h0M355,332h0M322,331h0M300,331h0M292,332h0M284,331h0M296,328h0M292,328h0M317,331h0M309,332h0M300,332h0M275,333h0M262,332h0M254,331h0M271,332h0M174,246h0M165,245h0M178,242h0M195,242h0M203,240h0M203,245h0M208,242h0M220,301h0M267,301h0M288,331h0M326,330h0M330,329h0M334,329h0M338,331h0M338,330h0M334,331h0M330,349h0M322,349h0M300,347h0M296,349h0M292,347h0M288,347h0M288,348h0M296,348h0M300,348h0M305,349h0M279,350h0M262,348h0M262,349h0M262,347h0M267,349h0M271,348h0M275,347h0M279,347h0M284,347h0M300,349h0M284,348h0M271,349h0M267,348h0M279,348h0M292,349h0M233,331h0M229,329h0M233,329h0M241,329h0M237,330h0M229,331h0M275,331h0M267,328h0M258,332h0M279,332h0M292,331h0M300,329h0M317,347h0M351,329h0M423,360h0M431,360h0M435,360h0M440,360h0M440,361h0M435,361h0M431,361h0M427,360h0M427,361h0M423,361h0M419,361h0M414,361h0M410,360h0M410,361h0M406,361h0M402,360h0M402,361h0M406,360h0M419,360h0M444,360h0M452,360h0M465,360h0M469,360h0M478,360h0M482,360h0M486,360h0M490,360h0M494,360h0M499,361h0M494,361h0M410,348h0M406,348h0M402,348h0M393,349h0M389,361h0M389,360h0M393,361h0M397,361h0M414,360h0M448,360h0M452,361h0M457,361h0M457,360h0M461,360h0M461,361h0M372,361h0M368,360h0M359,361h0M355,361h0M351,361h0M288,332h0M288,328h0M296,332h0M237,331h0M220,330h0M225,331h0M233,328h0M237,332h0M220,331h0M220,300h0M229,301h0M229,300h0M225,301h0M250,304h0M254,303h0M254,300h0M250,299h0M233,247h0M170,247h0M153,242h0M136,243h0M258,298h0M279,298h0M292,299h0M296,299h0M305,300h0M309,300h0M313,301h0M313,300h0M296,302h0M326,300h0M334,299h0M338,347h0M313,361h0M300,361h0M296,360h0M296,361h0M292,361h0M288,360h0M288,361h0M284,360h0M279,360h0M279,361h0M271,361h0M267,361h0M262,361h0M258,360h0M258,361h0M254,360h0M250,360h0M267,360h0M254,347h0M233,332h0M178,247h0M157,247h0M144,244h0M170,238h0M178,244h0M182,243h0M187,243h0M187,300h0M199,300h0M203,299h0M208,302h0M208,299h0M212,303h0M212,302h0M212,299h0M216,299h0M225,328h0M241,332h0M229,332h0M241,328h0M250,328h0M250,332h0M254,333h0M225,332h0M203,242h0M161,246h0M157,241h0M157,240h0M157,243h0M153,250h0M144,241h0M153,243h0M187,242h0M195,304h0M195,300h0M203,301h0M208,301h0M212,301h0M216,303h0M216,298h0M220,299h0M241,302h0M246,302h0M225,330h0M237,328h0M216,304h0M199,302h0M187,301h0M153,241h0M187,245h0M187,239h0M191,240h0M195,244h0M208,237h0M216,242h0M195,299h0M195,301h0M191,302h0M284,298h0M334,301h0M309,302h0M292,302h0M275,301h0M275,300h0M275,304h0M284,328h0M258,304h0M250,305h0M241,305h0M229,304h0M174,248h0M170,249h0M165,249h0M241,303h0M233,303h0M161,245h0M165,238h0M178,239h0M187,238h0M195,245h0M203,300h0M267,303h0M292,348h0M296,347h0M313,360h0M309,360h0M309,361h0M305,361h0M300,360h0M292,360h0M292,359h0M296,359h0M275,359h0M271,360h0M275,361h0M275,360h0M284,361h0M279,359h0M182,247h0M199,239h0M208,241h0M212,238h0M220,244h0M225,242h0M229,243h0M216,245h0M212,243h0M212,241h0M216,243h0M216,240h0M220,242h0M262,303h0M275,298h0M305,302h0M284,299h0M267,299h0M275,299h0M279,300h0M279,299h0M284,303h0M203,304h0M170,248h0M178,245h0M182,239h0M187,244h0M191,241h0M225,240h0M229,240h0M233,245h0M212,298h0M233,298h0M208,303h0M199,298h0M216,301h0M220,303h0M220,298h0M258,299h0M258,303h0M258,301h0M254,332h0M216,331h0M199,299h0M187,302h0M178,237h0M385,360h0M385,361h0M393,360h0M397,360h0M376,361h0M334,361h0M279,349h0M254,349h0M191,248h0M284,300h0M246,304h0M225,304h0M203,302h0M199,301h0M191,301h0M182,246h0M170,250h0M161,240h0M174,244h0M195,302h0M216,332h0M149,243h0M174,241h0M212,239h0M220,239h0M229,242h0M271,303h0M220,304h0M187,248h0M174,247h0M203,239h0M267,298h0M292,300h0M364,329h0M381,330h0M393,329h0M165,234h0M182,240h0M225,241h0M288,299h0M296,301h0M296,303h0M292,301h0M288,300h0M237,304h0M300,299h0M330,300h0M351,330h0M385,330h0M372,348h0M364,347h0M368,349h0M372,347h0M376,347h0M381,347h0M389,348h0M397,347h0M444,361h0M368,361h0M313,349h0M448,361h0M465,361h0M368,331h0M300,303h0M275,302h0M229,241h0M233,240h0M347,330h0M368,330h0M381,348h0M385,347h0M397,348h0M393,348h0M385,349h0M376,349h0M368,348h0M359,347h0M355,349h0M347,349h0M250,349h0M220,332h0M203,247h0M187,247h0M157,248h0M254,298h0M279,303h0M191,245h0M191,246h0M208,243h0M216,238h0M225,244h0M225,245h0M225,246h0M220,245h0M203,246h0M203,244h0M212,242h0M216,244h0M216,239h0M220,240h0M229,244h0M233,242h0M225,298h0M250,298h0M267,302h0M195,246h0M191,243h0M191,247h0M195,243h0M203,243h0M220,243h0M220,241h0M237,243h0M246,244h0M233,244h0M195,247h0M212,244h0M229,245h0M233,246h0M233,241h0M225,243h0M212,245h0M233,243h0M237,246h0M220,246h0M208,244h0M191,303h0M208,245h0M199,243h0M191,244h0M199,246h0M195,239h0M199,240h0M199,245h0M208,246h0M199,247h0M182,242h0M191,239h0M372,330h0M376,330h0M376,331h0M343,329h0M338,332h0M300,302h0M322,301h0M216,305h0M182,300h0M182,245h0M178,240h0M267,241h0M241,243h0M237,242h0M334,300h0M334,302h0M330,302h0M313,303h0M203,238h0M237,241h0M254,241h0M309,299h0M317,301h0M305,303h0M237,244h0M241,242h0M296,300h0M305,299h0M288,303h0M292,303h0M300,301h0M309,301h0M317,300h0M275,305h0M229,238h0M157,237h0M161,247h0M220,297h0M322,300h0M241,298h0M305,301h0M237,297h0M178,246h0M165,239h0M326,301h0M313,302h0M355,329h0M275,303h0M309,303h0M241,245h0M330,301h0M317,302h0M322,302h0M313,299h0M300,300h0M271,298h0M225,247h0M187,249h0M174,239h0M178,241h0M165,242h0M170,242h0M170,240h0M187,240h0M182,238h0M178,238h0M187,237h0M359,331h0M347,332h0M355,331h0M355,330h0M359,330h0M351,331h0M343,332h0M347,329h0M389,330h0M389,347h0M385,348h0M381,349h0M368,347h0M364,349h0M359,348h0M355,348h0M351,348h0M347,347h0M347,348h0M351,347h0M359,349h0M364,348h0M376,348h0M372,349h0M326,329h0M178,243h0M182,249h0M174,238h0M364,331h0M267,347h0M275,349h0M271,347h0M237,333h0M203,305h0M389,349h0M229,297h0M359,329h0M330,360h0M334,360h0M326,360h0M322,360h0M322,361h0M351,360h0M359,360h0M364,360h0M364,361h0M254,328h0M216,330h0M258,333h0M296,350h0M317,360h0M241,333h0M208,306h0M178,249h0M157,244h0M153,240h0M157,242h0M174,240h0M279,328h0M246,333h0M165,243h0M165,246h0M275,328h0M284,349h0M267,350h0M275,348h0M258,348h0M229,305h0M161,243h0M250,348h0M237,298h0M250,327h0M279,346h0M288,349h0M258,349h0M254,348h0M250,347h0M144,240h0M161,239h0M473,361h0M473,360h0M482,361h0M478,361h0M469,361h0M351,349h0M355,347h0M381,360h0M376,360h0M381,361h0M165,244h0M136,239h0M338,360h0M161,237h0M343,347h0M330,332h0M486,361h0M490,361h0" stroke="#1c1c1c" stroke-width="2.6" stroke-opacity="0.75" stroke-linecap="round" fill="none"/>
<text x="538.0" y="86.0" font-size="10.5" fill="#767f89" text-anchor="start" font-weight="normal">枠外 155 点</text>
<text x="538.0" y="112.0" font-size="10.5" fill="#767f89" text-anchor="start" font-weight="normal">6 本の線に帯が立つ。</text>
<text x="538.0" y="126.0" font-size="10.5" fill="#767f89" text-anchor="start" font-weight="normal">比推定が成立する根拠。</text>
<text x="538.0" y="154.0" font-size="10.5" fill="#767f89" text-anchor="start" font-weight="normal">一方、線から外れた点が</text>
<text x="538.0" y="168.0" font-size="10.5" fill="#767f89" text-anchor="start" font-weight="normal">半クラなのか、クラッチを</text>
<text x="538.0" y="182.0" font-size="10.5" fill="#767f89" text-anchor="start" font-weight="normal">切った惰行なのか、</text>
<text x="538.0" y="196.0" font-size="10.5" fill="#767f89" text-anchor="start" font-weight="normal">変速の最中なのかは、</text>
<text x="538.0" y="210.0" font-size="10.5" fill="#767f89" text-anchor="start" font-weight="600">この平面では区別が</text>
<text x="538.0" y="224.0" font-size="10.5" fill="#767f89" text-anchor="start" font-weight="600">つかない。</text>
<text x="538.0" y="252.0" font-size="10.5" fill="#767f89" text-anchor="start" font-weight="normal">とくに 20〜40km/h・</text>
<text x="538.0" y="266.0" font-size="10.5" fill="#767f89" text-anchor="start" font-weight="normal">1,700〜2,400rpm では、</text>
<text x="538.0" y="280.0" font-size="10.5" fill="#767f89" text-anchor="start" font-weight="normal">クラッチ切りが本物の</text>
<text x="538.0" y="294.0" font-size="10.5" fill="#767f89" text-anchor="start" font-weight="600">6速と数値的に重なる。</text>
</svg>